<svg xmlns="http://www.w3.org/2000/svg" viewBox="0 0 512 512">
  <rect width="512" height="512" fill="#09090b" rx="115"/>
  
  <path d="M112 256c0-70 56-128 128-128h32c70 0 128 58 128 128v48c0 35-28 64-64 64h-16c-17 0-32-15-32-32v-16c0-17-15-32-32-32h-32c-17 0-32 15-32 32v16c0 17-15 32-32 32h-16c-35 0-64-29-64-64v-48z" fill="#4f46e5"/>
  
  <circle cx="176" cy="240" r="16" fill="#e0e7ff"/>
  <circle cx="176" cy="288" r="16" fill="#e0e7ff"/>
  <circle cx="152" cy="264" r="16" fill="#e0e7ff"/>
  <circle cx="200" cy="264" r="16" fill="#e0e7ff"/>
  
  <circle cx="312" cy="272" r="20" fill="#818cf8"/>
  <circle cx="360" cy="240" r="20" fill="#818cf8"/>
</svg>
